<svg width="24" height="24" viewBox="0 0 24 24" fill="none" xmlns="http://www.w3.org/2000/svg">
<path fill-rule="evenodd" clip-rule="evenodd" d="M7.95836 0.349121H16.6151C20.5987 0.349121 23.8291 3.57954 23.8291 7.5631V16.2199C23.8291 20.2034 20.5987 23.4338 16.6151 23.4338H7.95836C3.9748 23.4338 0.744385 20.2034 0.744385 16.2199V7.5631C0.744385 3.57954 3.9748 0.349121 7.95836 0.349121ZM16.6151 21.2697C19.3997 21.2697 21.6649 19.0045 21.6649 16.2199V7.5631C21.6649 4.7785 19.3997 2.51331 16.6151 2.51331H7.95836C5.17376 2.51331 2.90857 4.7785 2.90857 7.5631V16.2199C2.90857 19.0045 5.17376 21.2697 7.95836 21.2697H16.6151Z" fill="white"/>
<path fill-rule="evenodd" clip-rule="evenodd" d="M6.51562 11.8915C6.51562 8.70441 9.09967 6.12036 12.2868 6.12036C15.4739 6.12036 18.058 8.70441 18.058 11.8915C18.058 15.0787 15.4739 17.6627 12.2868 17.6627C9.09967 17.6627 6.51562 15.0787 6.51562 11.8915ZM8.67981 11.8915C8.67981 13.8797 10.2986 15.4985 12.2868 15.4985C14.275 15.4985 15.8938 13.8797 15.8938 11.8915C15.8938 9.90193 14.275 8.28455 12.2868 8.28455C10.2986 8.28455 8.67981 9.90193 8.67981 11.8915Z" fill="white"/>
<ellipse cx="18.4907" cy="5.68747" rx="0.769043" ry="0.76901" fill="white"/>
</svg>
