<svg width="24" height="20" viewBox="0 0 24 20" fill="none" xmlns="http://www.w3.org/2000/svg">
<path d="M23.7723 2.66822C22.9139 3.04479 21.9991 3.29439 21.0454 3.41558C22.0265 2.82981 22.7754 1.90931 23.1274 0.799796C22.2127 1.34517 21.2027 1.7304 20.1264 1.94538C19.2578 1.02054 18.0199 0.447754 16.6694 0.447754C14.0493 0.447754 11.9399 2.57443 11.9399 5.18156C11.9399 5.55669 11.9717 5.91739 12.0496 6.26078C8.11505 6.06888 4.63356 4.18315 2.29478 1.31055C1.88647 2.01896 1.64696 2.82981 1.64696 3.7027C1.64696 5.34171 2.491 6.79461 3.74913 7.63576C2.98877 7.62133 2.24284 7.40058 1.61089 7.05287C1.61089 7.0673 1.61089 7.08605 1.61089 7.10481C1.61089 9.40463 3.25136 11.3149 5.40258 11.7549C5.01735 11.8603 4.59749 11.9108 4.16177 11.9108C3.85878 11.9108 3.55291 11.8934 3.26579 11.83C3.87898 13.7042 5.619 15.082 7.68798 15.1268C6.07781 16.3863 4.03336 17.1452 1.8201 17.1452C1.43199 17.1452 1.05974 17.1279 0.6875 17.0803C2.78389 18.4322 5.2684 19.2041 7.94768 19.2041C16.6564 19.2041 21.4177 11.9901 21.4177 5.73704C21.4177 5.52784 21.4105 5.32584 21.4004 5.1253C22.3396 4.45872 23.1288 3.62623 23.7723 2.66822Z" fill="white"/>
</svg>
